<svg width="819" height="310" viewBox="0 0 819 310" fill="none" xmlns="http://www.w3.org/2000/svg">
<rect x="0.5" y="0.5" width="269" height="69" rx="4.5" stroke="#9747FF" stroke-dasharray="10 5"/>
<path d="M94.1543 23.9844C93.8292 23.9988 93.5264 24.0935 93.2598 24.2012C93.01 24.3017 92.0558 24.711 90.5527 25.3555C89.0484 26.0006 87.0565 26.8558 84.9316 27.7696C80.682 29.5971 75.9042 31.6542 73.457 32.7071C73.365 32.7467 73.0439 32.8492 72.7031 33.1153C72.3623 33.3813 72 33.9326 72 34.5469C72 35.0423 72.2361 35.5344 72.5332 35.8282C72.8303 36.122 73.1447 36.2671 73.4141 36.377C74.3912 36.7757 77.4218 38.0159 77.9941 38.2501C78.1955 38.867 79.2925 42.2226 79.5469 43.045C79.7146 43.5877 79.8742 43.9276 80.082 44.1973C80.1859 44.3322 80.3067 44.4504 80.4531 44.543C80.5116 44.58 80.5758 44.6086 80.6406 44.6348L80.6445 44.6368C80.6595 44.6428 80.6723 44.653 80.6875 44.6583C80.7161 44.6683 80.7352 44.6695 80.7734 44.6778C80.9258 44.727 81.0795 44.7579 81.2168 44.7579C81.802 44.7579 82.1602 44.4356 82.1602 44.4356L82.1816 44.42L85.1914 41.8165L88.8418 45.2696C88.8932 45.3423 89.3725 46.0001 90.4297 46.0001C91.0574 46.0001 91.5553 45.6851 91.875 45.3497C92.1947 45.0143 92.3938 44.6619 92.4785 44.2188V44.2169C92.5577 43.7982 95.9219 26.5274 95.9219 26.5274L95.916 26.5508C96.0145 26.1013 96.0403 25.6827 95.9316 25.2696C95.823 24.8565 95.5366 24.461 95.1816 24.2481C94.8267 24.0353 94.4794 23.9701 94.1543 23.9844ZM93.9668 26.0743C93.962 26.1035 93.9704 26.0888 93.9629 26.1231L93.9609 26.1348L93.959 26.1465C93.959 26.1465 90.6365 43.1964 90.5137 43.8458C90.5227 43.7967 90.4816 43.8942 90.4395 43.9532C90.3799 43.9121 90.2578 43.8594 90.2578 43.8594L90.2383 43.838L85.252 39.1212L81.7266 42.168L82.7754 37.9688C82.7754 37.9688 89.3316 31.1822 89.7266 30.7872C90.0446 30.4712 90.1113 30.361 90.1113 30.252C90.1113 30.106 90.0352 30.0001 89.8652 30.0001C89.7122 30.0001 89.5065 30.1488 89.3965 30.2188C87.9634 31.1324 81.6718 34.7992 78.8516 36.4395C78.4034 36.2561 75.2897 34.9815 74.2344 34.5508C74.2424 34.5473 74.2397 34.5486 74.248 34.545C76.6959 33.4918 81.4716 31.4347 85.7207 29.6075C87.8452 28.6939 89.8387 27.838 91.3418 27.1934C92.8218 26.5587 93.8501 26.1219 93.9668 26.0743Z" fill="#212121"/>
<g clip-path="url(#clip0_9_232)">
<path d="M184.429 25.6616C182.876 25.6469 181.704 25.7202 180.723 26.2255C180.32 26.4306 180.034 26.6943 179.814 27.0019C179.697 27.1557 179.587 27.2949 179.536 27.6171C179.507 27.771 179.485 28.0273 179.646 28.3056C179.807 28.5913 180.151 28.7817 180.386 28.8183C180.561 28.8403 180.935 28.9941 181.001 29.082C181.155 29.3017 181.213 29.4629 181.235 29.5507C181.257 29.6386 181.25 29.58 181.25 29.58V29.6679C181.25 29.6679 181.309 30.5908 181.272 31.5429C181.25 32.0117 181.206 32.5024 181.133 32.832C181.06 33.1616 180.876 33.2421 181.14 33.0883C180.957 33.1982 181.023 33.2421 180.796 33.125C180.561 33.0151 179.954 32.5024 179.155 31.0669C178.357 29.624 177.778 28.8769 177.646 28.7158C177.595 28.5693 177.471 28.269 177.046 27.9394C176.497 27.5146 175.933 27.5073 175.933 27.5073L175.881 27.5H171.787C171.787 27.5 171.553 27.5073 171.282 27.5659C171.011 27.6245 170.623 27.6904 170.256 28.1445H170.249C169.875 28.6206 169.941 29.0527 169.971 29.3164C170.007 29.5874 170.088 29.7998 170.088 29.7998L170.102 29.8437L170.124 29.8877C170.124 29.8877 173.252 36.56 176.987 40.625C180.496 44.4482 184.56 44.375 184.56 44.375H186.868L186.919 44.3676C186.919 44.3676 187.659 44.4043 188.281 43.7085C188.596 43.3496 188.669 43.0127 188.706 42.7636C188.75 42.5073 188.75 42.3022 188.75 42.3022V42.3608C188.75 42.3608 188.779 41.8774 188.911 41.372C188.977 41.123 189.072 40.874 189.16 40.7348C189.204 40.6543 189.204 40.6762 189.219 40.6543C189.38 40.7714 189.644 41.0424 189.922 41.3867C190.493 42.0678 191.138 43.0127 192.039 43.6645C192.69 44.1259 193.306 44.331 193.774 44.4043C194.089 44.4555 194.316 44.4482 194.47 44.4336L197.656 44.375H197.685C197.685 44.375 198.345 44.3603 199.004 43.9428C199.326 43.7378 199.7 43.3642 199.824 42.8295C199.956 42.2949 199.81 41.7163 199.502 41.1816C199.604 41.3647 199.48 41.123 199.385 40.9326C199.29 40.7421 199.143 40.4858 198.923 40.1635C198.498 39.5337 197.795 38.6474 196.631 37.5195C196.081 36.9921 195.73 36.6992 195.51 36.4941C195.576 36.3989 195.583 36.3916 195.832 36.0986C196.228 35.6372 196.807 34.956 197.539 33.9379C198.418 32.7075 199.055 31.7041 199.465 30.8691C199.875 30.0415 200.205 29.353 199.839 28.5034C199.641 28.042 199.29 27.8662 199.033 27.7563C198.769 27.6464 198.535 27.6025 198.315 27.5659C197.883 27.5 197.502 27.5 197.502 27.5L193.789 27.5293C193.679 27.5073 193.254 27.4267 192.705 27.7783C192.163 28.1152 192.039 28.4741 192.009 28.5839C191.921 28.7085 191.306 29.58 190.449 31.1035C189.585 32.6416 188.999 33.059 188.926 33.0957C188.904 33.0737 188.948 33.081 188.845 33.0224C188.801 32.9858 188.757 32.9565 188.721 32.561C188.691 32.1655 188.728 31.5429 188.728 30.8105C188.728 29.2358 188.867 28.4155 188.787 27.6318C188.75 27.2363 188.589 26.7529 188.237 26.4306C187.886 26.1157 187.505 25.9985 187.109 25.896C186.487 25.7421 185.644 25.6762 184.429 25.6616ZM184.414 27.5366C185.549 27.5512 186.348 27.6391 186.641 27.7124C186.89 27.7783 186.926 27.8076 186.919 27.7929C186.919 27.8076 186.919 27.8003 186.919 27.8222C186.948 28.1372 186.853 29.1479 186.853 30.8105C186.853 31.4624 186.802 32.0922 186.853 32.7221C186.904 33.352 187.131 34.1211 187.798 34.5752H187.805C187.725 34.5239 188.647 35.2124 189.526 34.8974C190.405 34.5752 191.101 33.7695 192.09 32.019C192.954 30.4663 193.591 29.5947 193.591 29.5947L193.65 29.5068L193.694 29.4189C193.694 29.4189 193.679 29.4116 193.694 29.4043L197.502 29.375C197.502 29.375 197.766 29.375 198.022 29.4189C198.03 29.4189 198.037 29.4189 198.044 29.4189C198.008 29.4336 198.037 29.5288 197.781 30.0488C197.451 30.7153 196.858 31.6674 196.016 32.8466C195.32 33.8061 194.8 34.4287 194.412 34.8828C194.023 35.3295 193.73 35.542 193.54 36.1279C193.445 36.4135 193.467 36.8383 193.606 37.124C193.738 37.4023 193.899 37.5561 194.06 37.7099C194.382 38.0175 194.763 38.3178 195.32 38.8671C196.411 39.9218 197.026 40.6982 197.371 41.2109C197.546 41.4746 197.649 41.6577 197.715 41.7895C197.781 41.9213 197.737 41.8701 197.883 42.1191C198.008 42.3462 197.986 42.3755 197.986 42.3608C197.861 42.434 197.546 42.5 197.539 42.5L194.353 42.5586L194.265 42.5805C194.265 42.5805 194.272 42.5879 194.075 42.5586C193.87 42.5219 193.547 42.434 193.137 42.1411C192.632 41.7822 191.995 40.9472 191.365 40.1855C191.057 39.812 190.742 39.4458 190.347 39.1528C189.951 38.8598 189.329 38.5888 188.691 38.8012C188.142 38.977 187.783 39.3798 187.556 39.7534C187.329 40.1342 187.197 40.5297 187.095 40.8886C186.904 41.6137 186.875 42.2656 186.875 42.2656V42.3242C186.875 42.3242 186.875 42.3681 186.86 42.434C186.824 42.4487 186.772 42.4853 186.743 42.5H184.502C184.502 42.5 181.404 42.6611 178.364 39.3652C175.112 35.8129 172.219 29.873 171.977 29.375H175.749C175.786 29.3896 175.918 29.4409 175.903 29.4336C175.815 29.3603 175.947 29.5214 175.947 29.5214L176.006 29.6606L176.108 29.7778C176.108 29.7778 176.687 30.4809 177.515 31.9751C178.401 33.5791 179.148 34.414 179.983 34.8169C180.818 35.2197 181.697 34.934 182.07 34.7216C182.766 34.3188 182.847 33.7548 182.964 33.2348C183.081 32.7148 183.118 32.1582 183.14 31.6162C183.184 30.5761 183.125 29.6899 183.125 29.624C183.118 29.602 183.118 29.3457 183.044 29.0673C182.964 28.7817 182.817 28.4082 182.539 28.0127C182.422 27.8515 182.312 27.9321 182.187 27.8149C182.707 27.6684 183.264 27.5219 184.414 27.5366Z" fill="#212121"/>
</g>
<path d="M34.5 23C27.6075 23 22 28.6075 22 35.5C22 42.3925 27.6075 48 34.5 48C41.3925 48 47 42.3925 47 35.5C47 28.6075 41.3925 23 34.5 23ZM34.5 24.875C40.3791 24.875 45.125 29.6209 45.125 35.5C45.125 40.2908 41.9731 44.3266 37.625 45.6575V42.4604C37.625 41.2666 36.9371 40.2429 35.9429 39.7334C36.9096 39.5485 37.8072 39.1817 38.5612 38.6637C39.3153 38.1456 39.904 37.4912 40.2785 36.7546C40.6531 36.0181 40.8026 35.2207 40.7148 34.4286C40.6269 33.6366 40.3042 32.8727 39.7734 32.2004C40.0507 31.3471 40.3603 29.8504 39.6245 28.6726C38.2058 28.6726 37.2904 29.6451 36.8535 30.2498C36.1066 30.0044 35.3074 29.8771 34.5 29.875C33.6921 29.8757 32.892 30.0017 32.144 30.2461C31.7061 29.6411 30.7914 28.6726 29.3755 28.6726C28.5311 30.0243 29.0531 31.4778 29.3328 32.071C28.7661 32.7404 28.4108 33.5098 28.2973 34.3131C28.1837 35.1164 28.3154 35.9298 28.681 36.6835C29.0465 37.4372 29.6351 38.1087 30.3962 38.6406C31.1573 39.1724 32.0683 39.5486 33.051 39.7371C32.2347 40.1578 31.6233 40.9213 31.436 41.8477H30.6145C29.8039 41.8477 29.4889 41.5183 29.0508 40.9626C28.6183 40.407 28.1532 40.0337 27.5945 39.8787C27.2932 39.8468 27.0903 40.0759 27.3528 40.2791C28.2397 40.8828 28.3009 41.8709 28.6565 42.5178C28.9802 43.1003 29.6436 43.625 30.3936 43.625H31.375V45.6575C27.0269 44.3266 23.875 40.2908 23.875 35.5C23.875 29.6209 28.6209 24.875 34.5 24.875Z" fill="black"/>
<path d="M242.578 23.0001C242.328 22.9979 242.105 23.1563 242.027 23.3952L239.185 32.1429H231.101L228.259 23.3952C228.183 23.1653 227.971 23.0068 227.728 23.0001C227.485 22.9956 227.266 23.143 227.179 23.3706L223.755 32.509C223.753 32.509 223.753 32.5112 223.75 32.5135L222.036 37.0849C221.947 37.3259 222.027 37.596 222.237 37.7478L234.804 46.8862L234.806 46.8906C234.808 46.8906 234.808 46.8906 234.808 46.8929C234.815 46.8973 234.824 46.9018 234.831 46.9062C234.84 46.9107 234.846 46.9174 234.855 46.9219C234.857 46.9219 234.857 46.9241 234.86 46.9241C234.86 46.9241 234.862 46.9263 234.864 46.9263C234.866 46.9286 234.869 46.9308 234.873 46.9308C234.875 46.933 234.88 46.9353 234.882 46.9375C234.893 46.942 234.906 46.9487 234.92 46.9531C234.92 46.9531 234.92 46.9531 234.92 46.9554C234.933 46.9598 234.947 46.9643 234.958 46.9688C234.96 46.9688 234.96 46.9688 234.962 46.971C234.971 46.9732 234.98 46.9754 234.991 46.9799C234.996 46.9799 235 46.9821 235.007 46.9821C235.007 46.9844 235.007 46.9844 235.007 46.9821C235.018 46.9866 235.029 46.9888 235.04 46.9911C235.056 46.9933 235.069 46.9955 235.085 46.9978C235.107 46.9978 235.132 47 235.154 47C235.177 46.9978 235.197 46.9978 235.217 46.9933C235.226 46.9933 235.232 46.9933 235.241 46.9911C235.241 46.9911 235.244 46.9911 235.246 46.9911C235.25 46.9888 235.252 46.9888 235.257 46.9888C235.259 46.9888 235.261 46.9866 235.266 46.9866C235.27 46.9844 235.277 46.9844 235.281 46.9821C235.29 46.9799 235.297 46.9777 235.304 46.9754C235.308 46.9754 235.311 46.9754 235.313 46.9732C235.315 46.9732 235.317 46.9732 235.319 46.9732C235.328 46.9688 235.34 46.9643 235.348 46.9621C235.36 46.9576 235.369 46.9531 235.377 46.9487C235.38 46.9487 235.38 46.9487 235.382 46.9464C235.384 46.9464 235.386 46.9464 235.389 46.9442C235.393 46.942 235.398 46.9397 235.402 46.9375C235.415 46.9308 235.427 46.9241 235.438 46.9174C235.442 46.9152 235.444 46.9129 235.447 46.9107C235.449 46.9107 235.451 46.9085 235.453 46.9085C235.462 46.9018 235.471 46.8973 235.48 46.8906L235.485 46.8839L248.052 37.7478C248.259 37.596 248.339 37.3259 248.25 37.0849L246.54 32.5291C246.538 32.5246 246.536 32.5179 246.536 32.5135L243.107 23.3706C243.023 23.1497 242.815 23.0023 242.578 23.0001ZM225.467 33.2858H230.27L233.616 43.5804L225.467 33.2858ZM240.016 33.2858H244.819L236.67 43.5804L240.016 33.2858ZM224.465 33.8617L232.107 43.5156L223.259 37.0804L224.465 33.8617ZM245.822 33.8617L247.027 37.0804L238.179 43.5156L245.822 33.8617Z" fill="black"/>
<path d="M129.676 24C125.999 24 123 26.9994 123 30.6761V40.3239C123 44.0006 125.999 47 129.676 47H139.324C143.001 47 146 44.0006 146 40.3239V30.6761C146 26.9994 143.001 24 139.324 24H129.676ZM129.676 25.7692H139.324C142.043 25.7692 144.231 27.9531 144.231 30.6761V40.3239C144.231 43.0434 142.047 45.2308 139.324 45.2308H129.676C126.957 45.2308 124.769 43.0469 124.769 40.3239V30.6761C124.769 27.9566 126.953 25.7692 129.676 25.7692ZM141.135 27.5385C140.402 27.5385 139.808 28.1328 139.808 28.8654C139.808 29.598 140.402 30.1923 141.135 30.1923C141.867 30.1923 142.462 29.598 142.462 28.8654C142.462 28.1328 141.867 27.5385 141.135 27.5385ZM134.5 29.3077C131.089 29.3077 128.308 32.0894 128.308 35.5C128.308 38.9106 131.089 41.6923 134.5 41.6923C137.911 41.6923 140.692 38.9106 140.692 35.5C140.692 32.0894 137.911 29.3077 134.5 29.3077ZM134.5 31.0769C136.953 31.0769 138.923 33.0466 138.923 35.5C138.923 37.9534 136.953 39.9231 134.5 39.9231C132.047 39.9231 130.077 37.9534 130.077 35.5C130.077 33.0466 132.047 31.0769 134.5 31.0769Z" fill="black"/>
<rect x="0.5" y="120.5" width="818" height="69" rx="4.5" stroke="#9747FF" stroke-dasharray="10 5"/>
<path d="M45.625 143.125H24.375L26.25 164.375L35 166.875L43.75 164.375L45.625 143.125Z" fill="#E65100"/>
<path d="M35 145V164.938L42 162.937L43.5625 145H35Z" fill="#FF6D00"/>
<path d="M35 155.625V153.125H40.375L39.9375 160.312L35 161.937V159.312L37.5625 158.438L37.75 155.625H35ZM40.5625 150.625L40.75 148.125H35V150.625H40.5625Z" fill="white"/>
<path d="M35 159.312V161.937L30.0625 160.312L29.8125 156.875H32.3125L32.4375 158.438L35 159.312ZM31.9375 150.625H35V148.125H29.3125L29.75 155.625H35V153.125H32.125L31.9375 150.625Z" fill="#EEEEEE"/>
<path d="M95.625 143.125H74.375L76.25 164.375L85 166.875L93.75 164.375L95.625 143.125Z" fill="#0277BD"/>
<path d="M85 145V164.938L92 162.937L93.5625 145H85Z" fill="#039BE5"/>
<path d="M90.6875 148.125H85V150.625H88.0625L87.875 153.125H85V155.625H87.75L87.5625 158.438L85 159.312V161.937L89.9375 160.312L90.375 153.125L90.6875 148.125Z" fill="white"/>
<path d="M85 148.125V150.625H79.4375L79.25 148.125H85ZM82.125 153.125L82.25 155.625H85V153.125H82.125ZM82.375 156.875H79.875L80.0625 160.312L85 161.937V159.312L82.4375 158.438L82.375 156.875Z" fill="#EEEEEE"/>
<path d="M123.75 166.25V143.75H146.25V166.25H123.75Z" fill="#F7DF1E"/>
<path d="M138.461 160.592C138.894 161.294 139.364 161.967 140.359 161.967C141.196 161.967 141.634 161.552 141.634 160.977C141.634 160.289 141.181 160.044 140.261 159.644L139.756 159.429C138.301 158.811 137.333 158.038 137.333 156.403C137.333 154.897 138.486 153.751 140.288 153.751C141.571 153.751 142.493 154.195 143.158 155.359L141.586 156.363C141.241 155.746 140.867 155.503 140.288 155.503C139.696 155.503 139.322 155.876 139.322 156.363C139.322 156.966 139.697 157.209 140.563 157.582L141.067 157.797C142.783 158.528 143.75 159.274 143.75 160.952C143.75 162.759 142.323 163.75 140.406 163.75C138.532 163.75 137.468 162.809 136.875 161.645L138.461 160.592ZM131.22 160.643C131.536 161.209 132.017 161.645 132.708 161.645C133.369 161.645 133.75 161.384 133.75 160.368V153.75H135.833V160.688C135.833 162.793 134.613 163.75 132.83 163.75C131.219 163.75 130.057 162.659 129.583 161.645L131.22 160.643Z" fill="#000001"/>
<path d="M185 161.25C176.938 161.25 170.625 158.5 170.625 155C170.625 151.5 176.938 148.75 185 148.75C193.062 148.75 199.375 151.5 199.375 155C199.375 158.5 193.062 161.25 185 161.25ZM185 150C177.125 150 171.875 152.562 171.875 155C171.875 157.438 177.125 160 185 160C192.875 160 198.125 157.438 198.125 155C198.125 152.562 192.875 150 185 150Z" fill="#80DEEA"/>
<path d="M179.437 167.875C178.812 167.875 178.312 167.75 177.812 167.437C174.75 165.687 175.562 158.875 179.562 151.875C181.437 148.625 183.75 145.875 186 144.125C188.437 142.25 190.625 141.687 192.125 142.562C193.687 143.437 194.25 145.625 193.875 148.687C193.5 151.562 192.25 154.937 190.375 158.187C188.5 161.437 186.187 164.187 183.937 165.937C182.312 167.187 180.75 167.875 179.437 167.875ZM190.562 143.375C189.562 143.375 188.25 143.937 186.812 145.062C184.687 146.75 182.5 149.375 180.687 152.5C176.75 159.312 176.375 165.187 178.437 166.375C179.5 167 181.25 166.437 183.187 164.937C185.312 163.25 187.5 160.625 189.312 157.5C191.125 154.375 192.312 151.187 192.687 148.5C193 146 192.625 144.25 191.562 143.625C191.25 143.5 190.937 143.375 190.562 143.375Z" fill="#80DEEA"/>
<path d="M190.625 167.875C187.5 167.875 183 164.063 179.625 158.125C175.562 151.125 174.75 144.313 177.812 142.563C180.875 140.813 186.375 144.875 190.437 151.875C192.312 155.125 193.562 158.5 193.937 161.375C194.375 164.438 193.75 166.563 192.187 167.5C191.687 167.75 191.187 167.875 190.625 167.875ZM178.437 143.625C176.375 144.813 176.75 150.688 180.687 157.5C184.625 164.313 189.5 167.563 191.562 166.375C192.625 165.75 193 164 192.687 161.5C192.312 158.813 191.125 155.625 189.312 152.5C185.375 145.688 180.5 142.438 178.437 143.625Z" fill="#80DEEA"/>
<path d="M185 157.5C186.381 157.5 187.5 156.381 187.5 155C187.5 153.619 186.381 152.5 185 152.5C183.619 152.5 182.5 153.619 182.5 155C182.5 156.381 183.619 157.5 185 157.5Z" fill="#80DEEA"/>
<path d="M234.992 150.625L231.709 145H221.859L234.992 167.5L248.125 145H238.275L234.992 150.625Z" fill="#81C784"/>
<path d="M238.275 145L234.992 150.625L231.709 145H226.966L234.992 158.75L243.018 145H238.275Z" fill="#455A64"/>
<path d="M285.004 168.387C284.646 168.387 284.29 168.293 283.976 168.112L280.701 166.172C280.211 165.899 280.45 165.802 280.611 165.746C281.264 165.518 281.396 165.466 282.092 165.071C282.165 165.029 282.261 165.044 282.336 165.088L284.852 166.581C284.943 166.631 285.072 166.631 285.156 166.581L294.966 160.918C295.057 160.866 295.116 160.761 295.116 160.653V149.332C295.116 149.219 295.058 149.119 294.964 149.062L285.158 143.404C285.068 143.35 284.947 143.35 284.856 143.404L275.051 149.062C274.956 149.116 274.896 149.221 274.896 149.329V160.651C274.896 160.759 274.954 160.862 275.048 160.913L277.735 162.465C279.194 163.194 280.085 162.335 280.085 161.471V150.297C280.085 150.138 280.21 150.015 280.37 150.015H281.613C281.767 150.015 281.895 150.137 281.895 150.297V161.476C281.895 163.421 280.834 164.539 278.99 164.539C278.422 164.539 277.976 164.539 276.728 163.925L274.154 162.442C273.518 162.073 273.125 161.385 273.125 160.651V149.33C273.125 148.593 273.518 147.906 274.154 147.542L283.975 141.876C284.596 141.525 285.421 141.525 286.038 141.876L295.847 147.544C296.479 147.91 296.875 148.596 296.875 149.332V160.654C296.875 161.388 296.479 162.073 295.846 162.442L286.038 168.107C285.723 168.289 285.367 168.382 285.004 168.382" fill="#21A366"/>
<path d="M288.035 160.586C283.743 160.586 282.843 158.615 282.843 156.962C282.843 156.806 282.969 156.68 283.127 156.68H284.394C284.534 156.68 284.653 156.782 284.674 156.92C284.866 158.211 285.436 158.862 288.031 158.862C290.099 158.862 290.978 158.396 290.978 157.299C290.978 156.667 290.728 156.199 287.516 155.884C284.829 155.619 283.169 155.027 283.169 152.879C283.169 150.899 284.839 149.721 287.636 149.721C290.777 149.721 292.334 150.811 292.53 153.154C292.538 153.235 292.508 153.313 292.454 153.372C292.4 153.429 292.324 153.463 292.245 153.463H290.971C290.838 153.463 290.723 153.37 290.696 153.242C290.389 151.884 289.647 151.449 287.631 151.449C285.374 151.449 285.111 152.235 285.111 152.824C285.111 153.539 285.421 153.747 288.466 154.151C291.481 154.551 292.913 155.116 292.913 157.235C292.913 159.371 291.13 160.597 288.021 160.597" fill="#21A366"/>
<path d="M335.029 143.125C334.057 143.128 333.384 143.214 332.569 143.354C330.164 143.773 329.726 144.653 329.726 146.273V148.75H335.351V150H329.512H326.794C325.146 150 323.704 150.776 323.247 152.637C322.731 154.773 322.708 156.11 323.247 158.34C323.657 160.003 324.559 161.25 326.207 161.25H328.477V158.06C328.477 156.206 330.156 154.375 332.079 154.375H336.602C338.179 154.375 339.727 153.211 339.727 151.639V146.273C339.727 144.749 338.627 143.609 337.091 143.353C337.129 143.349 335.993 143.121 335.029 143.125ZM331.914 145.625C332.427 145.625 332.852 146.048 332.852 146.564C332.852 147.084 332.427 147.5 331.914 147.5C331.391 147.5 330.977 147.085 330.977 146.564C330.977 146.05 331.391 145.625 331.914 145.625Z" fill="#0277BD"/>
<path d="M334.424 166.875C335.396 166.872 336.069 166.786 336.884 166.646C339.289 166.227 339.727 165.347 339.727 163.727V161.25H334.102V160H339.941H342.66C344.307 160 345.749 159.224 346.206 157.363C346.722 155.227 346.746 153.89 346.206 151.66C345.796 149.997 344.894 148.75 343.246 148.75H340.976V151.94C340.976 153.794 339.297 155.625 337.374 155.625H332.851C331.274 155.625 329.726 156.789 329.726 158.361V163.727C329.726 165.251 330.826 166.391 332.362 166.647C332.324 166.651 333.46 166.879 334.424 166.875ZM337.539 164.375C337.026 164.375 336.602 163.952 336.602 163.436C336.602 162.916 337.026 162.5 337.539 162.5C338.062 162.5 338.477 162.915 338.477 163.436C338.477 163.95 338.062 164.375 337.539 164.375Z" fill="#FFC107"/>
<path fill-rule="evenodd" clip-rule="evenodd" d="M384.314 142.054C384.739 141.816 385.261 141.816 385.685 142.054C387.782 143.231 394.092 146.773 396.189 147.95C396.614 148.188 396.875 148.628 396.875 149.104C396.875 151.458 396.875 158.542 396.875 160.896C396.875 161.372 396.614 161.812 396.189 162.05C394.093 163.227 387.783 166.769 385.685 167.946C385.261 168.184 384.738 168.184 384.314 167.946C382.217 166.769 375.908 163.227 373.81 162.05C373.386 161.812 373.125 161.373 373.125 160.896C373.125 158.543 373.125 151.458 373.125 149.104C373.125 148.628 373.386 148.188 373.811 147.95C375.907 146.773 382.218 143.231 384.314 142.054Z" fill="url(#paint0_linear_9_232)"/>
<path fill-rule="evenodd" clip-rule="evenodd" d="M373.315 161.503C373.149 161.28 373.125 161.069 373.125 160.784C373.125 158.444 373.125 151.401 373.125 149.06C373.125 148.586 373.386 148.149 373.809 147.913C375.898 146.743 382.187 143.221 384.276 142.05C384.699 141.813 385.273 141.818 385.696 142.055C387.785 143.225 394.052 146.717 396.142 147.887C396.311 147.982 396.439 148.096 396.554 148.247L373.315 161.503Z" fill="url(#paint1_linear_9_232)"/>
<path fill-rule="evenodd" clip-rule="evenodd" d="M385 146.25C389.829 146.25 393.75 150.171 393.75 155C393.75 159.829 389.829 163.75 385 163.75C380.171 163.75 376.25 159.829 376.25 155C376.25 150.171 380.171 146.25 385 146.25ZM385 150.625C387.414 150.625 389.375 152.585 389.375 155C389.375 157.414 387.414 159.375 385 159.375C382.586 159.375 380.625 157.414 380.625 155C380.625 152.585 382.585 150.625 385 150.625Z" fill="white"/>
<path fill-rule="evenodd" clip-rule="evenodd" d="M396.553 148.253C396.876 148.555 396.869 149.01 396.869 149.368C396.869 151.74 396.849 158.486 396.875 160.858C396.877 161.106 396.796 161.366 396.673 161.563L384.746 155L396.553 148.253Z" fill="url(#paint2_linear_9_232)"/>
<g opacity="0.05">
<path fill-rule="evenodd" clip-rule="evenodd" d="M390.625 153.125V154.375H391.875V155.625H390.625V156.875H389.375V155.625H388.125V154.375H389.375V153.125H390.625ZM391.25 152.5H390.625H389.375H388.75V153.125V153.75H388.125H387.5V154.375V155.625V156.25H388.125H388.75V156.875V157.5H389.375H390.625H391.25V156.875V156.25H391.875H392.5V155.625V154.375V153.75H391.875H391.25V153.125V152.5Z" fill="black"/>
<path fill-rule="evenodd" clip-rule="evenodd" d="M395 153.125V154.375H396.25V155.625H395V156.875H393.75V155.625H392.5V154.375H393.75V153.125H395ZM395.625 152.5H395H393.75H393.125V153.125V153.75H392.5H391.875V154.375V155.625V156.25H392.5H393.125V156.875V157.5H393.75H395H395.625V156.875V156.25H396.25H396.875V155.625V154.375V153.75H396.25H395.625V153.125V152.5Z" fill="black"/>
</g>
<g opacity="0.07">
<path fill-rule="evenodd" clip-rule="evenodd" d="M390.625 153.125V154.375H391.875V155.625H390.625V156.875H389.375V155.625H388.125V154.375H389.375V153.125H390.625ZM390.938 152.812H390.625H389.375H389.062V153.125V154.062H388.125H387.812V154.375V155.625V155.938H388.125H389.062V156.875V157.188H389.375H390.625H390.938V156.875V155.938H391.875H392.188V155.625V154.375V154.062H391.875H390.938V153.125V152.812Z" fill="black"/>
<path fill-rule="evenodd" clip-rule="evenodd" d="M395 153.125V154.375H396.25V155.625H395V156.875H393.75V155.625H392.5V154.375H393.75V153.125H395ZM395.312 152.812H395H393.75H393.438V153.125V154.062H392.5H392.188V154.375V155.625V155.938H392.5H393.438V156.875V157.188H393.75H395H395.312V156.875V155.938H396.25H396.562V155.625V154.375V154.062H396.25H395.312V153.125V152.812Z" fill="black"/>
</g>
<path fill-rule="evenodd" clip-rule="evenodd" d="M390.625 153.125H389.375V154.375H388.125V155.625H389.375V156.875H390.625V155.625H391.875V154.375H390.625V153.125Z" fill="white"/>
<path fill-rule="evenodd" clip-rule="evenodd" d="M396.25 154.375H395V153.125H393.75V154.375H392.5V155.625H393.75V156.875H395V155.625H396.25V154.375Z" fill="white"/>
<path opacity="0.05" fill-rule="evenodd" clip-rule="evenodd" d="M385 146.25C388.205 146.25 391.001 147.982 392.526 150.554L388.73 152.723C387.961 151.467 386.579 150.625 385 150.625C382.585 150.625 380.625 152.585 380.625 155C380.625 157.414 382.586 159.375 385 159.375C386.606 159.375 388.007 158.505 388.768 157.213L392.601 159.322C391.094 161.964 388.256 163.75 385 163.75C380.171 163.75 376.25 159.829 376.25 155C376.25 150.171 380.171 146.25 385 146.25ZM385 145.625C379.831 145.625 375.625 149.831 375.625 155C375.625 160.169 379.831 164.375 385 164.375C388.354 164.375 391.475 162.558 393.144 159.631L393.458 159.08L392.902 158.774L389.069 156.665L388.538 156.372L388.229 156.896C387.556 158.039 386.319 158.75 385 158.75C382.932 158.75 381.25 157.068 381.25 155C381.25 152.932 382.932 151.25 385 151.25C386.312 151.25 387.507 151.922 388.197 153.049L388.514 153.567L389.04 153.266L392.836 151.098L393.387 150.783L393.063 150.236C391.378 147.392 388.289 145.625 385 145.625Z" fill="black"/>
<path opacity="0.07" fill-rule="evenodd" clip-rule="evenodd" d="M385 146.25C388.205 146.25 391.001 147.982 392.526 150.554L388.73 152.723C387.961 151.467 386.579 150.625 385 150.625C382.585 150.625 380.625 152.585 380.625 155C380.625 157.414 382.586 159.375 385 159.375C386.606 159.375 388.007 158.505 388.768 157.213L392.601 159.322C391.094 161.964 388.256 163.75 385 163.75C380.171 163.75 376.25 159.829 376.25 155C376.25 150.171 380.171 146.25 385 146.25ZM385 145.938C380.003 145.938 375.938 150.003 375.938 155C375.938 159.997 380.003 164.062 385 164.062C388.243 164.062 391.259 162.305 392.872 159.477L393.029 159.201L392.751 159.048L388.919 156.939L388.653 156.793L388.499 157.054C387.769 158.293 386.429 159.062 385 159.062C382.76 159.062 380.938 157.24 380.938 155C380.938 152.76 382.76 150.938 385 150.938C386.422 150.938 387.716 151.666 388.464 152.886L388.622 153.145L388.885 152.994L392.681 150.826L392.956 150.668L392.794 150.395C391.165 147.646 388.179 145.938 385 145.938Z" fill="black"/>
<path d="M446.874 149.723C446.874 149.274 446.778 148.877 446.583 148.537C446.393 148.202 446.107 147.922 445.724 147.7C442.562 145.877 439.398 144.059 436.237 142.234C435.385 141.742 434.559 141.76 433.713 142.259C432.454 143.001 426.153 146.611 424.276 147.699C423.503 148.147 423.126 148.832 423.126 149.722C423.125 153.388 423.126 157.055 423.125 160.721C423.125 161.16 423.217 161.549 423.403 161.884C423.593 162.229 423.883 162.517 424.275 162.744C426.153 163.832 432.454 167.441 433.712 168.183C434.559 168.683 435.385 168.701 436.237 168.209C439.398 166.384 442.563 164.566 445.725 162.743C446.117 162.516 446.407 162.228 446.597 161.883C446.783 161.548 446.875 161.159 446.875 160.72C446.875 160.72 446.875 153.389 446.874 149.723Z" fill="#A179DC"/>
<path d="M435.036 155.186L423.403 161.884C423.593 162.229 423.883 162.517 424.275 162.744C426.152 163.832 432.454 167.441 433.712 168.183C434.558 168.683 435.385 168.701 436.237 168.209C439.398 166.384 442.563 164.566 445.725 162.743C446.117 162.516 446.407 162.228 446.597 161.883L435.036 155.186Z" fill="#280068"/>
<path d="M446.874 149.723C446.874 149.274 446.778 148.877 446.584 148.537L435.036 155.186L446.597 161.883C446.783 161.548 446.875 161.159 446.875 160.72C446.875 160.72 446.875 153.389 446.874 149.723Z" fill="#390091"/>
<path d="M441.886 152.682V153.934H443.138V152.682H443.764V153.934H445.016V154.56H443.764V155.812H445.016V156.438H443.764V157.69H443.138V156.438H441.886V157.69H441.26V156.438H440.008V155.812H441.26V154.56H440.008V153.934H441.26V152.682H441.886ZM443.138 154.56H441.886V155.812H443.138V154.56Z" fill="white"/>
<path d="M435.062 146.394C438.328 146.394 441.179 148.167 442.706 150.803L442.691 150.778L438.849 152.99C438.092 151.709 436.704 150.844 435.112 150.826L435.062 150.825C432.634 150.825 430.666 152.794 430.666 155.221C430.665 155.986 430.865 156.739 431.246 157.402C432.003 158.725 433.428 159.617 435.062 159.617C436.706 159.617 438.139 158.714 438.892 157.377L438.874 157.409L442.711 159.631C441.2 162.245 438.388 164.014 435.16 164.049L435.062 164.049C431.786 164.049 428.926 162.265 427.403 159.615C426.659 158.321 426.234 156.821 426.234 155.221C426.234 150.346 430.186 146.393 435.062 146.393L435.062 146.394Z" fill="white"/>
<path d="M492.217 166.519L490.228 164.531L488.903 165.856L490.891 167.845C491.258 168.211 491.851 168.211 492.217 167.845C492.583 167.479 492.583 166.886 492.217 166.519ZM494.092 155.269L492.103 153.281L490.778 154.606L492.766 156.595C493.133 156.961 493.726 156.961 494.092 156.595C494.458 156.229 494.458 155.636 494.092 155.269ZM477.927 166.519L479.916 164.531L481.241 165.856L479.253 167.845C478.886 168.211 478.293 168.211 477.927 167.845C477.561 167.479 477.561 166.886 477.927 166.519ZM475.896 155.269L477.884 153.281L479.21 154.606L477.221 156.595C476.855 156.961 476.261 156.961 475.896 156.595C475.53 156.229 475.529 155.636 475.896 155.269Z" fill="#FFCC80"/>
<path d="M493.75 145C493.75 143.792 493.032 143.125 491.731 143.125C490.429 143.125 489.375 144.729 489.375 145.938C489.375 146.562 490.577 146.875 491.25 146.875C492.551 146.875 493.75 146.208 493.75 145ZM476.25 145C476.25 143.792 476.968 143.125 478.269 143.125C479.571 143.125 480.625 144.729 480.625 145.938C480.625 146.562 479.423 146.875 478.75 146.875C477.449 146.875 476.25 146.208 476.25 145Z" fill="#4DD0E1"/>
<path d="M491.875 144.375C491.709 144.375 491.55 144.441 491.433 144.558C491.316 144.675 491.25 144.834 491.25 145C491.25 145.166 491.316 145.325 491.433 145.442C491.55 145.559 491.709 145.625 491.875 145.625C492.041 145.625 492.2 145.559 492.317 145.442C492.434 145.325 492.5 145.166 492.5 145C492.5 144.834 492.434 144.675 492.317 144.558C492.2 144.441 492.041 144.375 491.875 144.375ZM478.125 144.375C477.959 144.375 477.8 144.441 477.683 144.558C477.566 144.675 477.5 144.834 477.5 145C477.5 145.166 477.566 145.325 477.683 145.442C477.8 145.559 477.959 145.625 478.125 145.625C478.291 145.625 478.45 145.559 478.567 145.442C478.684 145.325 478.75 145.166 478.75 145C478.75 144.834 478.684 144.675 478.567 144.558C478.45 144.441 478.291 144.375 478.125 144.375Z" fill="#424242"/>
<path d="M493.125 161.25C493.125 164.234 491.113 167.5 484.806 167.5C479.73 167.5 476.875 164.234 476.875 161.25C476.875 158.125 477.5 157.621 477.5 155C477.5 152.07 477.5 150.625 477.5 148.75C477.5 145.766 479.423 141.875 484.806 141.875C490.19 141.875 492.5 144.369 492.5 148.125C492.5 150 492.352 151.533 492.5 154.375C492.616 156.601 493.125 159.375 493.125 161.25Z" fill="#4DD0E1"/>
<path d="M488.125 143.75C487.462 143.75 486.826 144.013 486.357 144.482C485.888 144.951 485.625 145.587 485.625 146.25C485.625 146.913 485.888 147.549 486.357 148.018C486.826 148.487 487.462 148.75 488.125 148.75C488.788 148.75 489.424 148.487 489.893 148.018C490.362 147.549 490.625 146.913 490.625 146.25C490.625 145.587 490.362 144.951 489.893 144.482C489.424 144.013 488.788 143.75 488.125 143.75ZM481.875 143.75C481.212 143.75 480.576 144.013 480.107 144.482C479.638 144.951 479.375 145.587 479.375 146.25C479.375 146.913 479.638 147.549 480.107 148.018C480.576 148.487 481.212 148.75 481.875 148.75C482.538 148.75 483.174 148.487 483.643 148.018C484.112 147.549 484.375 146.913 484.375 146.25C484.375 145.587 484.112 144.951 483.643 144.482C483.174 144.013 482.538 143.75 481.875 143.75Z" fill="#F5F5F5"/>
<path d="M485 152.5C485 152.845 485.28 153.125 485.625 153.125C485.97 153.125 486.25 152.845 486.25 152.5V150.625H485V152.5ZM483.75 152.5C483.75 152.845 484.03 153.125 484.375 153.125C484.72 153.125 485 152.845 485 152.5V150.625H483.75V152.5Z" fill="#EEEEEE"/>
<path d="M486.562 151.25C486.305 151.25 486.154 151.197 485.931 151.122C485.321 150.917 484.668 150.918 484.058 151.123C483.836 151.198 483.694 151.25 483.438 151.25C482.604 151.25 482.5 150.625 482.5 150.312C482.5 149.375 483.438 148.75 484.375 148.75C484.897 148.75 485.103 148.75 485.625 148.75C486.562 148.75 487.5 149.375 487.5 150.312C487.5 150.625 487.396 151.25 486.562 151.25Z" fill="#FFCC80"/>
<path d="M486.875 145.625C486.709 145.625 486.55 145.691 486.433 145.808C486.316 145.925 486.25 146.084 486.25 146.25C486.25 146.416 486.316 146.575 486.433 146.692C486.55 146.809 486.709 146.875 486.875 146.875C487.041 146.875 487.2 146.809 487.317 146.692C487.434 146.575 487.5 146.416 487.5 146.25C487.5 146.084 487.434 145.925 487.317 145.808C487.2 145.691 487.041 145.625 486.875 145.625ZM480.625 145.625C480.459 145.625 480.3 145.691 480.183 145.808C480.066 145.925 480 146.084 480 146.25C480 146.416 480.066 146.575 480.183 146.692C480.3 146.809 480.459 146.875 480.625 146.875C480.791 146.875 480.95 146.809 481.067 146.692C481.184 146.575 481.25 146.416 481.25 146.25C481.25 146.084 481.184 145.925 481.067 145.808C480.95 145.691 480.791 145.625 480.625 145.625ZM485 148.125C484.668 148.125 484.351 148.191 484.116 148.308C483.882 148.425 483.75 148.584 483.75 148.75C483.75 148.916 483.882 149.075 484.116 149.192C484.351 149.309 484.668 149.375 485 149.375C485.332 149.375 485.649 149.309 485.884 149.192C486.118 149.075 486.25 148.916 486.25 148.75C486.25 148.584 486.118 148.425 485.884 148.308C485.649 148.191 485.332 148.125 485 148.125Z" fill="#424242"/>
<path d="M534.781 155.561C534.157 154.556 533.705 153.722 533.078 152.152C532.018 149.5 539.525 147.104 536.481 142.499C537.801 145.68 531.746 147.646 531.183 150.295C530.669 152.731 534.778 155.561 534.781 155.561Z" fill="#F44336"/>
<path d="M534.924 150.794C534.804 152.366 536.317 153.204 536.361 154.353C536.396 155.288 535.456 156.068 535.456 156.068C535.456 156.068 537.161 155.733 537.693 154.306C538.284 152.723 536.547 151.638 536.726 150.37C536.893 149.159 540.495 146.906 540.495 146.906C540.495 146.906 535.194 147.257 534.924 150.794Z" fill="#F44336"/>
<path d="M540.053 155.659C541.149 155.413 542.073 156.111 542.073 156.916C542.073 158.729 539.56 160.443 539.56 160.443C539.56 160.443 543.451 159.979 543.451 157.002C543.451 155.033 541.54 154.541 540.053 155.659ZM538.206 157.122C538.206 157.122 539.419 156.258 539.742 155.933C536.765 156.565 529.968 156.65 529.968 156.101C529.968 155.596 532.16 155.078 532.16 155.078C532.16 155.078 527.302 155.008 527.302 156.441C527.302 157.934 533.661 158.041 538.206 157.122Z" fill="#1565C0"/>
<path d="M537.459 158.482C534.641 159.419 529.451 159.119 530.988 157.861C530.239 157.861 529.129 158.463 529.129 159.042C529.129 160.202 534.743 161.099 538.898 159.399L537.459 158.482Z" fill="#1565C0"/>
<path d="M531.679 160.462C530.656 160.462 529.994 161.121 529.994 161.601C529.994 163.095 536.094 163.246 538.511 161.729L536.975 160.709C535.169 161.503 530.634 161.612 531.679 160.462Z" fill="#1565C0"/>
<path d="M542.676 162.895C542.676 162.31 542.016 162.034 541.78 161.903C543.173 165.261 527.832 165 527.832 163.018C527.832 162.567 528.961 162.126 530.005 162.334L529.118 161.81C527.038 161.484 525.625 162.398 525.625 163.136C525.625 166.575 542.676 166.409 542.676 162.895Z" fill="#1565C0"/>
<path d="M544.375 164.128C541.784 166.687 535.213 167.619 528.606 166.038C535.213 168.853 544.344 167.268 544.375 164.128Z" fill="#1565C0"/>
<g clip-path="url(#clip1_9_232)">
<path d="M585 163.062C576.832 163.062 570.188 159.446 570.188 155C570.188 150.554 576.832 146.938 585 146.938C593.167 146.938 599.812 150.554 599.812 155C599.812 159.446 593.167 163.062 585 163.062Z" fill="#DCD5F2"/>
<path d="M585 147.125C593.064 147.125 599.625 150.658 599.625 155C599.625 159.342 593.064 162.875 585 162.875C576.936 162.875 570.375 159.342 570.375 155C570.375 150.658 576.936 147.125 585 147.125ZM585 146.75C576.716 146.75 570 150.444 570 155C570 159.556 576.716 163.25 585 163.25C593.284 163.25 600 159.556 600 155C600 150.444 593.284 146.75 585 146.75Z" fill="#8B75A1"/>
<path d="M579.417 152.75C580.064 152.75 580.622 152.983 580.948 153.39C581.229 153.74 581.316 154.204 581.199 154.731C580.884 156.153 580.273 156.5 578.089 156.5H576.536L577.192 152.75H579.417ZM579.417 152H576.562L575.25 159.5H576L576.396 157.25H578.089C580.288 157.25 581.484 156.911 581.931 154.893C582.316 153.161 581.038 152 579.417 152ZM592.917 152.75C593.564 152.75 594.122 152.983 594.448 153.39C594.729 153.74 594.816 154.204 594.699 154.731C594.384 156.153 593.773 156.5 591.589 156.5H590.036L590.692 152.75H592.917ZM592.917 152H590.062L588.75 159.5H589.5L589.896 157.25H591.589C593.788 157.25 594.984 156.911 595.431 154.893C595.816 153.161 594.538 152 592.917 152Z" fill="#36404D"/>
<path d="M588.402 152.455C588.072 152.131 587.491 152 586.625 152H584.549L585 149.75H584.213L582.75 157.25H583.496L584.392 152.75H584.549H586.626C587.502 152.75 587.786 152.9 587.876 152.989C588.005 153.116 588.035 153.449 587.958 153.875L587.295 157.25H588.085L588.695 154.014C588.825 153.298 588.726 152.773 588.402 152.455Z" fill="#36404D"/>
</g>
<path d="M623.75 146.25C623.75 144.869 624.869 143.75 626.25 143.75H643.75C645.131 143.75 646.25 144.869 646.25 146.25V163.75C646.25 165.131 645.131 166.25 643.75 166.25H626.25C624.869 166.25 623.75 165.131 623.75 163.75V146.25Z" fill="#03A9F4"/>
<path d="M632.51 151.984H631.259V154.755H632.492C632.834 154.755 633.098 154.643 633.286 154.419C633.473 154.196 633.566 153.87 633.566 153.443C633.566 152.999 633.471 152.646 633.279 152.384C633.088 152.121 632.831 151.988 632.51 151.984Z" fill="#020F16"/>
<path d="M625.625 145.625V164.375H644.375V145.625H625.625ZM634.603 155.493C634.087 155.998 633.371 156.25 632.455 156.25H631.259V159.375H629.464V150.488H632.492C633.371 150.488 634.072 150.761 634.594 151.306C635.117 151.851 635.379 152.559 635.379 153.43C635.379 154.301 635.12 154.988 634.603 155.493ZM640.426 158.96C639.983 159.318 639.401 159.497 638.681 159.497C638.196 159.497 637.769 159.402 637.399 159.213C637.029 159.024 636.738 158.76 636.529 158.422C636.319 158.085 636.214 157.721 636.214 157.33H637.856C637.865 157.631 637.934 157.857 638.067 158.007C638.199 158.158 638.416 158.233 638.717 158.233C639.181 158.233 639.412 158.024 639.412 157.604C639.412 157.458 639.342 157.323 639.202 157.199C639.061 157.075 638.75 156.907 638.266 156.696C637.554 156.407 637.064 156.108 636.797 155.798C636.531 155.488 636.398 155.104 636.398 154.644C636.398 154.066 636.606 153.589 637.023 153.213C637.44 152.837 637.993 152.649 638.68 152.649C639.404 152.649 639.984 152.836 640.419 153.21C640.855 153.584 641.073 154.087 641.073 154.718H639.345C639.345 154.181 639.122 153.912 638.674 153.912C638.491 153.912 638.341 153.969 638.222 154.082C638.103 154.196 638.045 154.356 638.045 154.559C638.045 154.705 638.11 154.834 638.241 154.946C638.371 155.058 638.677 155.218 639.163 155.426C639.867 155.686 640.364 155.976 640.655 156.296C640.946 156.615 641.091 157.029 641.091 157.537C641.091 158.128 640.869 158.602 640.426 158.96Z" fill="#020F16"/>
<path d="M686.25 150.625H681.25C678.834 150.625 676.875 148.666 676.875 146.25C676.875 143.834 678.834 141.875 681.25 141.875H686.25V150.625Z" fill="url(#paint3_linear_9_232)"/>
<path d="M685.625 159.375H681.25C678.834 159.375 676.875 157.416 676.875 155C676.875 152.584 678.834 150.625 681.25 150.625H685.625V159.375Z" fill="url(#paint4_linear_9_232)"/>
<path d="M681.25 168.125C678.834 168.125 676.875 166.166 676.875 163.75C676.875 161.334 678.834 159.375 681.25 159.375H685.625V163.75C685.625 166.166 683.666 168.125 681.25 168.125Z" fill="url(#paint5_linear_9_232)"/>
<path d="M690 150.625H685.625V141.875H690C692.416 141.875 694.375 143.834 694.375 146.25C694.375 148.666 692.416 150.625 690 150.625Z" fill="url(#paint6_linear_9_232)"/>
<path d="M690 159.375C692.416 159.375 694.375 157.416 694.375 155C694.375 152.584 692.416 150.625 690 150.625C687.584 150.625 685.625 152.584 685.625 155C685.625 157.416 687.584 159.375 690 159.375Z" fill="url(#paint7_linear_9_232)"/>
<g clip-path="url(#clip2_9_232)">
<path d="M715 151H717.667V165.667H720.333V148.333H715V151Z" fill="#C74343"/>
<path d="M717.667 147H721.667V165.667H724.333V144.333H717.667V147ZM729.667 155C729.667 150.588 733.255 147 737.667 147C742.079 147 745.667 150.588 745.667 155H748.333C748.333 149.119 743.548 144.333 737.667 144.333C731.785 144.333 727 149.119 727 155C727 160.881 731.785 165.667 737.667 165.667H755V163H737.667C733.255 163 729.667 159.412 729.667 155Z" fill="#C74343"/>
<path d="M737.667 157.667C736.196 157.667 735 156.471 735 155C735 153.529 736.196 152.333 737.667 152.333C739.137 152.333 740.333 153.529 740.333 155H743C743 152.059 740.608 149.667 737.667 149.667C734.725 149.667 732.333 152.059 732.333 155C732.333 157.941 734.725 160.333 737.667 160.333H755V157.667H737.667Z" fill="#C74343"/>
</g>
<path d="M785 168C792.18 168 798 162.18 798 155C798 147.82 792.18 142 785 142C777.82 142 772 147.82 772 155C772 162.18 777.82 168 785 168Z" fill="#012169"/>
<path d="M795.017 146.715L785 152.726L774.983 146.715C774.15 147.723 773.474 148.85 772.978 150.06L781.211 155L772.978 159.94C773.473 161.15 774.149 162.277 774.982 163.285L785 157.274L795.018 163.284C795.851 162.277 796.527 161.149 797.022 159.939L788.789 154.999L797.022 150.059C796.526 148.85 795.85 147.723 795.017 146.715Z" fill="white"/>
<path d="M774.589 162.763L786.263 155.758L796.136 161.682C796.36 161.31 796.565 160.926 796.75 160.534L786.263 154.242L796.136 148.319C795.911 147.946 795.669 147.585 795.41 147.237L783.736 154.242L773.863 148.319C773.641 148.69 773.436 149.072 773.25 149.466L783.736 155.758L773.863 161.682C774.087 162.054 774.33 162.415 774.589 162.763Z" fill="#C8102E"/>
<path d="M788.25 142.426C786.121 141.858 783.879 141.858 781.75 142.426V151.75H772.426C771.858 153.879 771.858 156.121 772.426 158.25H781.75V167.574C783.879 168.142 786.121 168.142 788.25 167.574V158.25H797.574C798.142 156.121 798.142 153.879 797.574 151.75H788.25V142.426Z" fill="white"/>
<path d="M786.95 142.162C786.305 142.059 785.653 142.005 785 142C784.347 142.005 783.695 142.059 783.05 142.162V153.05H772.162C772.059 153.695 772.005 154.347 772 155C772.005 155.653 772.059 156.305 772.162 156.95H783.05V167.838C783.695 167.941 784.347 167.995 785 168C785.653 167.995 786.305 167.941 786.95 167.838V156.95H797.838C797.941 156.305 797.995 155.653 798 155C797.995 154.347 797.941 153.695 797.838 153.05H786.95V142.162Z" fill="#C8102E"/>
<rect x="0.5" y="240.5" width="122" height="69" rx="4.5" stroke="#9747FF" stroke-dasharray="10 5"/>
<path d="M100.363 264.453H75.6367C74.1858 264.453 73 265.634 73 267.09V282.91C73 284.367 74.1866 285.547 75.6367 285.547H100.363C101.814 285.547 103 284.366 103 282.91V267.09C103 265.633 101.814 264.453 100.363 264.453ZM99.9584 266.211L88.6811 277.525C88.3375 277.87 87.6627 277.87 87.3189 277.525L76.0416 266.211H99.9584ZM74.7578 282.587V267.413L82.3202 275L74.7578 282.587ZM76.0416 283.789L83.5612 276.245L86.074 278.766C87.1037 279.799 88.8967 279.799 89.9261 278.766L92.4389 276.245L99.9584 283.789H76.0416ZM101.242 282.587L93.6798 275L101.242 267.413V282.587Z" fill="black"/>
<g clip-path="url(#clip3_9_232)">
<path d="M48.1578 281.182C48.1081 281.141 42.4934 277.122 40.97 277.386C40.2378 277.515 39.8188 278.014 38.9797 279.014C38.7477 279.293 38.5105 279.566 38.2681 279.836C37.7378 279.663 37.2205 279.452 36.7203 279.206C34.138 277.948 32.0516 275.862 30.7944 273.28C30.5477 272.779 30.3371 272.262 30.1644 271.732C30.44 271.48 30.8263 271.154 30.9913 271.016C31.9859 270.181 32.4847 269.762 32.6141 269.029C32.8794 267.511 28.8594 261.892 28.8181 261.841C28.6351 261.582 28.3966 261.366 28.12 261.21C27.8434 261.053 27.5356 260.96 27.2188 260.938C25.5894 260.938 20.9375 266.971 20.9375 267.988C20.9375 268.048 21.0228 274.051 28.4262 281.582C35.9488 288.977 41.9525 289.062 42.0116 289.062C43.0287 289.062 49.0625 284.411 49.0625 282.781C49.0397 282.464 48.9466 282.156 48.7902 281.88C48.6337 281.603 48.4177 281.365 48.1578 281.182ZM41.9084 287.182C41.0891 287.114 36.0509 286.45 29.7519 280.261C23.5316 273.928 22.8837 268.876 22.8191 268.093C24.0479 266.165 25.532 264.411 27.2309 262.88C27.2684 262.918 27.3181 262.974 27.3819 263.047C28.6848 264.826 29.8073 266.73 30.7325 268.731C30.4316 269.034 30.1136 269.319 29.78 269.585C29.2627 269.979 28.7876 270.426 28.3625 270.918L28.1347 271.237L28.2022 271.622C28.4006 272.482 28.7045 273.313 29.1069 274.098C30.5486 277.059 32.941 279.451 35.9019 280.892C36.6866 281.295 37.5183 281.599 38.3778 281.798L38.7631 281.865L39.0819 281.638C39.5759 281.21 40.0246 280.734 40.4206 280.214C40.7141 279.864 41.1069 279.396 41.255 279.264C43.262 280.188 45.171 281.312 46.9531 282.618C47.0309 282.684 47.0853 282.734 47.1219 282.767C45.5912 284.467 43.8374 285.951 41.9084 287.18V287.182Z" fill="black"/>
</g>
<defs>
<linearGradient id="paint0_linear_9_232" x1="373.125" y1="155" x2="396.875" y2="155" gradientUnits="userSpaceOnUse">
<stop offset="0.002" stop-color="#427FDB"/>
<stop offset="0.397" stop-color="#2668CB"/>
<stop offset="0.763" stop-color="#1358BF"/>
<stop offset="1" stop-color="#0C52BB"/>
</linearGradient>
<linearGradient id="paint1_linear_9_232" x1="373.125" y1="151.689" x2="396.554" y2="151.689" gradientUnits="userSpaceOnUse">
<stop stop-color="#32BDEF"/>
<stop offset="1" stop-color="#1EA2E4"/>
</linearGradient>
<linearGradient id="paint2_linear_9_232" x1="384.746" y1="154.908" x2="396.875" y2="154.908" gradientUnits="userSpaceOnUse">
<stop stop-color="#2AA4F4"/>
<stop offset="1" stop-color="#007AD9"/>
</linearGradient>
<linearGradient id="paint3_linear_9_232" x1="680.193" y1="140.688" x2="684.389" y2="152.216" gradientUnits="userSpaceOnUse">
<stop stop-color="#F44F5A"/>
<stop offset="0.443" stop-color="#EE3D4A"/>
<stop offset="1" stop-color="#E52030"/>
</linearGradient>
<linearGradient id="paint4_linear_9_232" x1="679.775" y1="149.147" x2="683.946" y2="160.607" gradientUnits="userSpaceOnUse">
<stop stop-color="#AE4CD5"/>
<stop offset="1" stop-color="#9331BF"/>
</linearGradient>
<linearGradient id="paint5_linear_9_232" x1="679.256" y1="156.473" x2="683.638" y2="168.511" gradientUnits="userSpaceOnUse">
<stop stop-color="#33C481"/>
<stop offset="1" stop-color="#21A366"/>
</linearGradient>
<linearGradient id="paint6_linear_9_232" x1="687.186" y1="140.32" x2="691.324" y2="151.689" gradientUnits="userSpaceOnUse">
<stop stop-color="#F09CA2"/>
<stop offset="1" stop-color="#EB6773"/>
</linearGradient>
<linearGradient id="paint7_linear_9_232" x1="687.946" y1="149.358" x2="691.786" y2="159.906" gradientUnits="userSpaceOnUse">
<stop stop-color="#32BDEF"/>
<stop offset="1" stop-color="#1EA2E4"/>
</linearGradient>
<clipPath id="clip0_9_232">
<rect width="30" height="30" fill="white" transform="translate(170 20)"/>
</clipPath>
<clipPath id="clip1_9_232">
<rect width="30" height="30" fill="white" transform="translate(570 140)"/>
</clipPath>
<clipPath id="clip2_9_232">
<rect width="30" height="30" fill="white" transform="translate(720 140)"/>
</clipPath>
<clipPath id="clip3_9_232">
<rect width="30" height="30" fill="white" transform="translate(20 260)"/>
</clipPath>
</defs>
</svg>
